<?xml version="1.0" encoding="UTF-8" standalone="no"?>
<svg
   xmlns:dc="http://purl.org/dc/elements/1.1/"
   xmlns:cc="http://creativecommons.org/ns#"
   xmlns:rdf="http://www.w3.org/1999/02/22-rdf-syntax-ns#"
   xmlns:svg="http://www.w3.org/2000/svg"
   xmlns="http://www.w3.org/2000/svg"
   xmlns:sodipodi="http://sodipodi.sourceforge.net/DTD/sodipodi-0.dtd"
   xmlns:inkscape="http://www.inkscape.org/namespaces/inkscape"
   version="1.1"
   viewBox="0 0 23.045457 23.045457"
   id="svg10"
   sodipodi:docname="ajouter.svg"
   width="23.045458"
   height="23.045458"
   inkscape:version="0.92.3 (2405546, 2018-03-11)">
  <metadata
     id="metadata16">
    <rdf:RDF>
      <cc:Work
         rdf:about="">
        <dc:format>image/svg+xml</dc:format>
        <dc:type
           rdf:resource="http://purl.org/dc/dcmitype/StillImage" />
        <dc:title></dc:title>
      </cc:Work>
    </rdf:RDF>
  </metadata>
  <defs
     id="defs14" />
  <sodipodi:namedview
     pagecolor="#ffffff"
     bordercolor="#666666"
     borderopacity="1"
     objecttolerance="10"
     gridtolerance="10"
     guidetolerance="10"
     inkscape:pageopacity="0"
     inkscape:pageshadow="2"
     inkscape:window-width="1827"
     inkscape:window-height="1051"
     id="namedview12"
     showgrid="false"
     inkscape:zoom="13.350176"
     inkscape:cx="10.713682"
     inkscape:cy="2.8832705"
     inkscape:window-x="1884"
     inkscape:window-y="-9"
     inkscape:window-maximized="1"
     inkscape:current-layer="svg10" />
  <rect
     width="50"
     height="50"
     id="rect2"
     x="2.4595737"
     y="-29.414116"
     style="fill-opacity:0" />
  <path
     d="m 23.045458,10.646058 c 0,-0.557115 -0.448207,-1.0053217 -1.005294,-1.0052934 l -7.43749,-1e-7 H 8.4427836 1.005293 C 0.4481777,9.6407645 -2.8998593e-5,10.088971 0,10.646059 v 1.753342 c 0,0.557115 0.4482067,1.005322 1.005293,1.005295 h 7.4374906 6.1598904 7.43749 c 0.557116,0 1.005322,-0.448207 1.005293,-1.005295 z"
     id="path6"
     style="fill:#ffffff;fill-opacity:1"
     inkscape:connector-curvature="0" />
  <path
     d="M 10.646058,0 C 10.088942,0 9.6407357,0.4482067 9.640764,1.0052937 v 7.4374906 6.1598907 7.43749 c 0,0.557115 0.448207,1.005322 1.005294,1.005293 H 12.3994 c 0.557116,0 1.005323,-0.448207 1.005295,-1.005293 V 14.602675 8.4427843 1.0052937 C 13.404695,0.4481784 12.956488,-2.83e-5 12.3994,7e-7 Z"
     id="path8"
     style="fill:#ffffff;fill-opacity:1"
     inkscape:connector-curvature="0" />
</svg>
