<?xml version="1.0" encoding="UTF-8" standalone="no"?>
<svg
   xmlns:osb="http://www.openswatchbook.org/uri/2009/osb"
   xmlns:dc="http://purl.org/dc/elements/1.1/"
   xmlns:cc="http://creativecommons.org/ns#"
   xmlns:rdf="http://www.w3.org/1999/02/22-rdf-syntax-ns#"
   xmlns:svg="http://www.w3.org/2000/svg"
   xmlns="http://www.w3.org/2000/svg"
   xmlns:sodipodi="http://sodipodi.sourceforge.net/DTD/sodipodi-0.dtd"
   xmlns:inkscape="http://www.inkscape.org/namespaces/inkscape"
   width="800"
   height="800"
   version="1.1"
   viewBox="0 0 800.00001 800.00001"
   id="svg4"
   sodipodi:docname="configuration2.svg"
   inkscape:version="0.92.3 (2405546, 2018-03-11)">
  <metadata
     id="metadata10">
    <rdf:RDF>
      <cc:Work
         rdf:about="">
        <dc:format>image/svg+xml</dc:format>
        <dc:type
           rdf:resource="http://purl.org/dc/dcmitype/StillImage" />
      </cc:Work>
    </rdf:RDF>
  </metadata>
  <defs
     id="defs8">
    <linearGradient
       id="linearGradient819"
       osb:paint="solid">
      <stop
         style="stop-color:#ae6666;stop-opacity:1;"
         offset="0"
         id="stop817" />
    </linearGradient>
  </defs>
  <sodipodi:namedview
     pagecolor="#ffffff"
     bordercolor="#666666"
     borderopacity="1"
     objecttolerance="10"
     gridtolerance="10"
     guidetolerance="10"
     inkscape:pageopacity="0"
     inkscape:pageshadow="2"
     inkscape:window-width="1800"
     inkscape:window-height="1046"
     id="namedview6"
     showgrid="false"
     inkscape:zoom="0.295"
     inkscape:cx="-315.84551"
     inkscape:cy="665.84585"
     inkscape:window-x="-9"
     inkscape:window-y="-9"
     inkscape:window-maximized="1"
     inkscape:current-layer="svg4" />
  <g
     id="g858">
    <path
       style="fill:#000000;fill-opacity:1;fill-rule:evenodd;stroke:#000000;stroke-width:0;stroke-miterlimit:4;stroke-dasharray:none;stroke-opacity:1"
       id="path2"
       d="m 329.38828,54.529508 c -71.135,-0.5321 -142.27,35.518 -213.4,168.030002 -24.175999,31.104 -34.181999,23.518 -69.587999,13.707 l -46.39099955,46.391 140.74999855,140.75 43.229,-43.227 c 24.598,-97.515 59.183,-60.32 104.91,-12.125 l 102.27,-102.27 c -128.16,-103.15 66.605,-155.55 126.52,-165.53 -62.766,-16.302002 -125.53,-45.253002 -188.3,-45.723002 z m 375.7,30.854 c -17.424,-0.3185 -34.63,5.1751 -49.025,18.293002 l -183.02,180.05 34.756,34.758 c 22.839,-21.831 160.2,-160.38 160.2,-160.38 l 16.775,16.777 -160.3,160.3 25.951,25.951 c 17.321,-16.174 162.67,-162.79 162.67,-162.79 l 16.775,16.775 -162.73,162.73 33.377,33.357 181.54,-181.53 c 50.277,-67.785 -14.751,-143.160002 -76.98,-144.300002 z m -291.69,207.290002 -100.65,100.65 325.05,332.51 c 73.141,63.135 173.24,-40.597 104.37,-104.37 l -328.78,-328.78 z m -70.08,206.51 -155.82,146.12 -32.057,64.861 22.365,17.895 74.182,-49.578 135.31,-135.31 -43.986,-43.986 z"
       inkscape:connector-curvature="0" />
    <path
       inkscape:connector-curvature="0"
       id="path2-2"
       d="m 321.76597,68.644103 c -52.12158,-0.06673 -100.10113,28.685089 -133.41256,67.630697 -28.0478,30.79497 -47.71727,67.93051 -70.22611,102.8068 -11.99038,14.69968 -32.324711,24.24535 -51.184301,18.27573 -6.509862,-1.36028 -12.850855,-3.39541 -19.225854,-5.26401 -10.229167,10.22982 -20.458334,20.45964 -30.6875,30.68945 40.273437,40.27344 80.546879,80.54688 120.820305,120.82032 10.73867,-11.49276 24.36165,-20.86113 32.03776,-34.82859 6.07433,-22.1872 14.45866,-46.68006 34.98568,-59.51321 17.42014,-8.96317 38.53472,-1.14636 52.14391,11.20577 10.69734,8.18437 19.97493,18.00577 29.26234,27.70829 26.9265,-27.39606 54.95727,-53.78053 81.11914,-81.85742 -19.23282,-17.388 -36.42865,-41.09227 -35.78125,-68.16406 1.51239,-27.41353 21.90763,-49.76551 44.46498,-63.21659 25.78207,-16.84953 54.92805,-27.71693 84.40611,-36.134974 C 415.35168,84.304212 369.57188,68.330076 321.76597,68.644103 Z m 376.51562,30.88086 c -23.2085,0.11631 -40.59643,17.927757 -55.18739,33.935957 -50.98311,50.15742 -101.96622,100.31483 -152.94932,150.47224 4.98437,4.98503 9.96874,9.97006 14.95312,14.95508 53.73771,-53.12283 106.79278,-106.92684 160.0957,-160.48437 12.19997,12.20042 24.39965,24.40113 36.59961,36.60156 -53.33354,53.40798 -106.81289,106.67034 -160.05664,160.16797 2.4082,1.97744 5.072,9.32229 8.06948,4.34254 53.899,-53.22108 107.03521,-107.20364 160.48326,-160.87575 12.20052,12.20053 24.40104,24.40105 36.60156,36.60157 -54.24349,54.24349 -108.48698,108.48698 -162.73047,162.73047 4.51693,4.51172 9.03385,9.02343 13.55078,13.53515 58.3326,-59.35528 119.00174,-116.52239 175.5625,-177.52343 16.41308,-26.18373 11.33895,-62.77561 -10.30469,-84.49805 -16.22957,-18.40913 -40.11551,-30.491083 -64.6875,-29.960937 z M 329.66831,393.5484 c 107.44423,109.04889 213.10614,219.91269 321.81575,327.67802 25.44481,17.9663 63.69345,11.14593 82.59246,-13.36747 14.56397,-17.04876 20.28779,-44.30799 6.16015,-63.34961 -14.509,-20.63953 -35.50517,-35.35742 -51.98476,-54.26599 -92.54675,-92.54611 -185.09349,-185.09221 -277.64024,-277.63831 -26.98112,26.98112 -53.96224,53.96224 -80.94336,80.94336 z m 9.32617,104.125 c -2.27144,6.8908 7.52121,-0.70181 0,0 z M 196.15269,653.89019 c -8.52201,17.46911 -17.41436,34.79632 -25.7168,52.34961 2.02748,1.39679 4.25256,6.74108 6.93313,3.35963 31.12,-20.7911 64.43514,-39.61785 89.29561,-68.24266 32.68678,-32.68678 65.37355,-65.37355 98.06032,-98.06032 -8.16731,-8.16732 -16.33463,-16.33464 -24.50195,-24.50196 -48.02344,45.0319 -96.04688,90.0638 -144.07031,135.0957 z"
       style="fill:#ffffff;fill-opacity:1;fill-rule:evenodd;stroke:#000000;stroke-width:0;stroke-miterlimit:4;stroke-dasharray:none;stroke-opacity:1" />
  </g>
</svg>
