<?xml version="1.0" encoding="UTF-8" standalone="no"?>
<svg
   xmlns:dc="http://purl.org/dc/elements/1.1/"
   xmlns:cc="http://creativecommons.org/ns#"
   xmlns:rdf="http://www.w3.org/1999/02/22-rdf-syntax-ns#"
   xmlns:svg="http://www.w3.org/2000/svg"
   xmlns="http://www.w3.org/2000/svg"
   xmlns:sodipodi="http://sodipodi.sourceforge.net/DTD/sodipodi-0.dtd"
   xmlns:inkscape="http://www.inkscape.org/namespaces/inkscape"
   width="42.34mm"
   height="42.34mm"
   version="1.1"
   style="clip-rule:evenodd;fill-rule:evenodd;image-rendering:optimizeQuality;shape-rendering:geometricPrecision;text-rendering:geometricPrecision"
   viewBox="0 0 4233.9999 4233.9999"
   id="svg13"
   sodipodi:docname="devis.svg"
   inkscape:version="0.92.3 (2405546, 2018-03-11)">
  <metadata
     id="metadata17">
    <rdf:RDF>
      <cc:Work
         rdf:about="">
        <dc:format>image/svg+xml</dc:format>
        <dc:type
           rdf:resource="http://purl.org/dc/dcmitype/StillImage" />
      </cc:Work>
    </rdf:RDF>
  </metadata>
  <sodipodi:namedview
     pagecolor="#ffffff"
     bordercolor="#666666"
     borderopacity="1"
     objecttolerance="10"
     gridtolerance="10"
     guidetolerance="10"
     inkscape:pageopacity="0"
     inkscape:pageshadow="2"
     inkscape:window-width="1317"
     inkscape:window-height="829"
     id="namedview15"
     showgrid="false"
     inkscape:zoom="1.931449"
     inkscape:cx="12.638979"
     inkscape:cy="28.53899"
     inkscape:window-x="0"
     inkscape:window-y="0"
     inkscape:window-maximized="0"
     inkscape:current-layer="svg13" />
  <defs
     id="defs4">
    <style
       type="text/css"
       id="style2">  .fil0 {fill:#F0F0F0} .fil1 {fill:#011627;fill-rule:nonzero}  </style>
  </defs>
  <g
     id="g4536"
     transform="translate(-2455,-2455)">
    <path
       style="fill:#000000;fill-opacity:1;fill-rule:nonzero"
       inkscape:connector-curvature="0"
       id="path9"
       d="m 5274,3284 h 819 v -314 h -819 z m 343,2363 h 134 l 252,-353 h -639 z m 162,-2171 v 1627 h 314 V 3476 Z M 5588,5103 V 3476 H 5274 V 5103 Z M 3157,3334 c -53,0 -95,-43 -95,-95 0,-53 42,-96 95,-96 h 1926 v -268 c 0,-53 42,-96 95,-96 h 1011 c 53,0 95,43 95,96 v 2324 c 0,23 -8,44 -22,61 l -496,695 c -17,28 -47,46 -82,46 H 3157 c -53,0 -95,-43 -95,-96 0,-52 42,-95 95,-95 H 5498 L 5174,5358 H 3157 c -53,0 -95,-43 -95,-96 0,-53 42,-96 95,-96 H 5083 V 4622 H 3157 c -53,0 -95,-43 -95,-96 0,-53 42,-96 95,-96 H 5083 V 3978 H 3157 c -53,0 -95,-43 -95,-96 0,-53 42,-96 95,-96 h 1926 v -452 z m -606,-879 h 4042 c 53,0 96,43 96,96 v 4042 c 0,53 -43,96 -96,96 H 2551 c -53,0 -96,-43 -96,-96 V 2551 c 0,-53 43,-96 96,-96 z m 3946,192 H 2647 v 3850 h 3850 z"
       class="fil1" />
    <path
       transform="scale(26.458333)"
       inkscape:connector-curvature="0"
       id="path4532"
       d="m 100.35247,172.60256 v -72.48444 h 72.48444 72.48444 v 72.48444 72.48444 h -72.48444 -72.48444 z m 116.88971,53.45728 c 0.56612,-0.49833 5.36814,-7.00645 10.67115,-14.46249 l 9.64183,-13.55643 v -45.55847 -45.55847 l -1.36419,-1.07307 c -1.32677,-1.04365 -1.91408,-1.07307 -21.41663,-1.07307 -24.74154,0 -22.78083,-0.69394 -22.78083,8.06264 v 5.9165 h -37.24013 -37.24013 l -1.07307,1.36419 c -1.35371,1.72095 -1.35371,2.79911 0,4.52007 l 1.07307,1.36418 h 37.24013 37.24013 v 8.54281 8.54281 h -37.24013 -37.24013 l -1.07307,1.36419 c -1.35371,1.72095 -1.35371,2.79911 0,4.52007 l 1.07307,1.36419 h 37.24013 37.24013 v 8.5428 8.54281 h -37.24013 -37.24013 l -1.07307,1.36419 c -1.35371,1.72095 -1.35371,2.79912 0,4.52007 l 1.07307,1.36419 h 37.24013 37.24013 v 10.09604 10.09605 h -36.47673 c -25.63034,0 -36.85188,0.17093 -37.73836,0.57484 -1.26401,0.57592 -2.41131,2.41912 -2.41131,3.8739 0,0.42668 0.57187,1.34766 1.27083,2.04662 l 1.27083,1.27083 h 38.73698 38.73698 l 5.80908,8.1545 5.80909,8.1545 -44.3931,0.25887 c -24.4162,0.14238 -44.77948,0.45035 -45.25174,0.68439 -2.20685,1.09362 -2.25534,5.23877 -0.0761,6.50652 0.63459,0.36917 16.66937,0.54885 49.93384,0.55954 45.94157,0.0147 49.0633,-0.0408 50.02839,-0.89031 z"
       style="opacity:1;fill:#ffffff;fill-opacity:1;stroke:#ffffff;stroke-width:2.24805307;stroke-linecap:square;stroke-linejoin:miter;stroke-miterlimit:4;stroke-dasharray:none;stroke-opacity:1;paint-order:fill markers stroke" />
  </g>
  <path
     style="opacity:1;fill:#ffffff;fill-opacity:1;stroke:#ffffff;stroke-width:2.24805307;stroke-linecap:square;stroke-linejoin:miter;stroke-miterlimit:4;stroke-dasharray:none;stroke-opacity:1;paint-order:fill markers stroke"
     d="M 126.1289,69.460237 V 38.913224 h 5.43633 5.43634 v 30.547013 30.547013 h -5.43634 -5.43633 z"
     id="path4540"
     inkscape:connector-curvature="0"
     transform="scale(26.458333)" />
  <path
     style="opacity:1;fill:#ffffff;fill-opacity:1;stroke:#ffffff;stroke-width:2.24805307;stroke-linecap:square;stroke-linejoin:miter;stroke-miterlimit:4;stroke-dasharray:none;stroke-opacity:1;paint-order:fill markers stroke"
     d="M 106.9723,69.460237 V 38.913224 h 5.69521 5.6952 v 30.547013 30.547013 h -5.6952 -5.69521 z"
     id="path4542"
     inkscape:connector-curvature="0"
     transform="scale(26.458333)" />
  <path
     style="opacity:1;fill:#ffffff;fill-opacity:1;stroke:#ffffff;stroke-width:2.24805307;stroke-linecap:square;stroke-linejoin:miter;stroke-miterlimit:4;stroke-dasharray:none;stroke-opacity:1;paint-order:fill markers stroke"
     d="m 106.9723,25.451828 v -5.695206 h 15.01463 15.01464 v 5.695206 5.695206 H 121.98693 106.9723 Z"
     id="path4544"
     inkscape:connector-curvature="0"
     transform="scale(26.458333)" />
  <path
     style="opacity:1;fill:#ffffff;fill-opacity:1;stroke:#ffffff;stroke-width:2.24805307;stroke-linecap:square;stroke-linejoin:miter;stroke-miterlimit:4;stroke-dasharray:none;stroke-opacity:1;paint-order:fill markers stroke"
     d="m 115.06078,113.98639 -4.44038,-6.21295 h 11.43992 11.43993 l -1.25472,1.68268 c -0.6901,0.92547 -2.714,3.7213 -4.49757,6.21295 l -3.24283,4.53028 h -2.50199 -2.50199 z"
     id="path4546"
     inkscape:connector-curvature="0"
     transform="scale(26.458333)" />
</svg>
