<?xml version="1.0" encoding="UTF-8" standalone="no"?>
<svg
   xmlns:dc="http://purl.org/dc/elements/1.1/"
   xmlns:cc="http://creativecommons.org/ns#"
   xmlns:rdf="http://www.w3.org/1999/02/22-rdf-syntax-ns#"
   xmlns:svg="http://www.w3.org/2000/svg"
   xmlns="http://www.w3.org/2000/svg"
   xmlns:sodipodi="http://sodipodi.sourceforge.net/DTD/sodipodi-0.dtd"
   xmlns:inkscape="http://www.inkscape.org/namespaces/inkscape"
   enable-background="new 0 0 1066 1778"
   version="1.1"
   viewBox="0 0 1022.2087 1022.2087"
   id="svg4"
   sodipodi:docname="nuit.svg"
   width="1022.2087"
   height="1022.2087"
   inkscape:version="0.92.3 (2405546, 2018-03-11)">
  <metadata
     id="metadata10">
    <rdf:RDF>
      <cc:Work
         rdf:about="">
        <dc:format>image/svg+xml</dc:format>
        <dc:type
           rdf:resource="http://purl.org/dc/dcmitype/StillImage" />
        <dc:title />
      </cc:Work>
    </rdf:RDF>
  </metadata>
  <defs
     id="defs8" />
  <sodipodi:namedview
     pagecolor="#ffffff"
     bordercolor="#666666"
     borderopacity="1"
     objecttolerance="10"
     gridtolerance="10"
     guidetolerance="10"
     inkscape:pageopacity="0"
     inkscape:pageshadow="2"
     inkscape:window-width="1827"
     inkscape:window-height="1051"
     id="namedview6"
     showgrid="false"
     inkscape:zoom="0.18771339"
     inkscape:cx="1955.7355"
     inkscape:cy="298.44822"
     inkscape:window-x="1884"
     inkscape:window-y="-9"
     inkscape:window-maximized="1"
     inkscape:current-layer="svg4"
     inkscape:pagecheckerboard="false"
     showborder="true"
     borderlayer="false" />
  <g
     id="g822"
     transform="translate(-21.89161,-88.989997)"
     style="fill:#a0a0a0;fill-opacity:0.98431373">
    <path
       sodipodi:nodetypes="cssscsscccc"
       id="path2"
       d="m 970.18,959.84 c -62.261,36.867 -134.92,58.03 -212.52,58.03 -230.69,0 -417.71,-187.01 -417.71,-417.71 0,-230.7 187.01,-417.71 417.71,-417.71 77.602,0 150.26,21.163 212.52,58.03 C 877.542,146.94 749.03,88.99 606.98,88.99 324.67,88.99 95.81,317.85 95.81,600.16 c 0,272.42 213.1,495.05 481.7,510.32 29.4729,0.8509 29.4729,0.8509 48.4419,0.4906 134.5,-4.909 255.73,-61.782 344.23,-151.14 z"
       inkscape:connector-curvature="0"
       style="fill:#a0a0a0;fill-opacity:0.98431373" />
  </g>
</svg>
