<?xml version="1.0" encoding="UTF-8" standalone="no"?>
<svg
   xmlns:dc="http://purl.org/dc/elements/1.1/"
   xmlns:cc="http://creativecommons.org/ns#"
   xmlns:rdf="http://www.w3.org/1999/02/22-rdf-syntax-ns#"
   xmlns:svg="http://www.w3.org/2000/svg"
   xmlns="http://www.w3.org/2000/svg"
   xmlns:sodipodi="http://sodipodi.sourceforge.net/DTD/sodipodi-0.dtd"
   xmlns:inkscape="http://www.inkscape.org/namespaces/inkscape"
   version="1.1"
   viewBox="0 0 18.125999 18.125999"
   id="svg10"
   sodipodi:docname="supprimer.svg"
   width="18.125999"
   height="18.125999"
   inkscape:version="0.92.3 (2405546, 2018-03-11)">
  <metadata
     id="metadata16">
    <rdf:RDF>
      <cc:Work
         rdf:about="">
        <dc:format>image/svg+xml</dc:format>
        <dc:type
           rdf:resource="http://purl.org/dc/dcmitype/StillImage" />
        <dc:title></dc:title>
      </cc:Work>
    </rdf:RDF>
  </metadata>
  <defs
     id="defs14" />
  <sodipodi:namedview
     pagecolor="#ffffff"
     bordercolor="#666666"
     borderopacity="1"
     objecttolerance="10"
     gridtolerance="10"
     guidetolerance="10"
     inkscape:pageopacity="0"
     inkscape:pageshadow="2"
     inkscape:window-width="1800"
     inkscape:window-height="1046"
     id="namedview12"
     showgrid="false"
     inkscape:zoom="13.350176"
     inkscape:cx="24.770744"
     inkscape:cy="23.454498"
     inkscape:window-x="-9"
     inkscape:window-y="-9"
     inkscape:window-maximized="1"
     inkscape:current-layer="svg10" />
  <rect
     width="50"
     height="50"
     id="rect2"
     x="0"
     y="-31.874001"
     style="fill-opacity:0" />
  <path
     d="m 16.591055,0.295145 c -0.39394,-0.39394 -1.0278,-0.39394 -1.4217,0 l -5.2591001,5.2591 -4.3557,4.3557 -5.25910002,5.2591 c -0.39394,0.39394 -0.39394,1.0278 1e-6,1.4217 l 1.23980002,1.2398 c 0.39394,0.39394 1.0278,0.39394 1.4217,10e-7 l 5.2591,-5.2591 4.3557001,-4.3557 5.2591,-5.2591 c 0.39394,-0.39394 0.39394,-1.0278 -1e-6,-1.4217 z"
     id="path6"
     style="fill:#ffffff;fill-opacity:1"
     inkscape:connector-curvature="0" />
  <path
     d="m 0.295455,1.534945 c -0.39394,0.39394 -0.39394,1.0278 0,1.4217 l 5.2591,5.2591 4.3557,4.3557 5.2591,5.2591 c 0.39394,0.39394 1.0278,0.39394 1.4217,-1e-6 l 1.2398,-1.2398 c 0.39394,-0.39394 0.39394,-1.0278 1e-6,-1.4217 l -5.2591,-5.2591 -4.3557,-4.3557 -5.2591,-5.2591 c -0.39394,-0.39394 -1.0278,-0.39394 -1.4217,10e-7 l -1.2398,1.2398 z"
     id="path8"
     style="fill:#ffffff;fill-opacity:1"
     inkscape:connector-curvature="0" />
</svg>
